<svg width="35" height="33" viewBox="0 0 35 33" fill="none" xmlns="http://www.w3.org/2000/svg">
<path d="M13.3841 9.8216C13.3105 9.8216 13.2377 9.8071 13.1698 9.77893C13.1018 9.75077 13.0401 9.70948 12.9881 9.65743C12.9361 9.60538 12.8948 9.54359 12.8667 9.47558C12.8386 9.40758 12.8241 9.33469 12.8241 9.26108V7.37734C12.8241 7.07989 12.706 6.79462 12.4959 6.58429C12.2858 6.37396 12.0007 6.2558 11.7036 6.2558C11.4064 6.2558 11.1214 6.37396 10.9113 6.58429C10.7011 6.79462 10.5831 7.07989 10.5831 7.37734V9.26108C10.5831 9.40974 10.5241 9.55231 10.4191 9.65743C10.314 9.76255 10.1716 9.8216 10.0231 9.8216C9.87455 9.8216 9.73211 9.76255 9.62709 9.65743C9.52207 9.55231 9.46307 9.40974 9.46307 9.26108V7.37734C9.47546 6.79077 9.71695 6.23241 10.1358 5.82196C10.5546 5.41151 11.1174 5.18164 11.7036 5.18164C12.2897 5.18164 12.8525 5.41151 13.2714 5.82196C13.6902 6.23241 13.9317 6.79077 13.9441 7.37734V9.26108C13.9441 9.33469 13.9296 9.40758 13.9014 9.47558C13.8733 9.54359 13.8321 9.60538 13.7801 9.65743C13.7281 9.70948 13.6663 9.75077 13.5984 9.77893C13.5304 9.8071 13.4576 9.8216 13.3841 9.8216Z" fill="white" stroke="white" stroke-width="0.6"/>
<path d="M11.703 32.0472C10.6635 32.0459 9.66698 31.632 8.93194 30.8963C8.1969 30.1605 7.78337 29.1631 7.78204 28.1226C7.78204 27.9739 7.84104 27.8314 7.94606 27.7262C8.05108 27.6211 8.19352 27.5621 8.34204 27.5621C8.49057 27.5621 8.633 27.6211 8.73802 27.7262C8.84304 27.8314 8.90204 27.9739 8.90204 28.1226C8.90204 28.8659 9.19704 29.5787 9.72214 30.1043C10.2472 30.6299 10.9594 30.9252 11.702 30.9252C12.4446 30.9252 13.1568 30.6299 13.6819 30.1043C14.207 29.5787 14.502 28.8659 14.502 28.1226C14.502 27.9739 14.561 27.8314 14.6661 27.7262C14.7711 27.6211 14.9135 27.5621 15.062 27.5621C15.2106 27.5621 15.353 27.6211 15.458 27.7262C15.563 27.8314 15.622 27.9739 15.622 28.1226C15.6207 29.1627 15.2075 30.1599 14.4729 30.8956C13.7382 31.6312 12.7422 32.0454 11.703 32.0472Z" fill="white" stroke="white" stroke-width="0.6"/>
<path d="M21.227 28.684H2.18105C1.83759 28.6838 1.50244 28.5783 1.22071 28.3816C0.938987 28.185 0.724197 27.9067 0.605249 27.5842C0.486301 27.2617 0.468904 26.9105 0.555399 26.5778C0.641895 26.2451 0.828131 25.9469 1.08905 25.7233C1.95814 24.9911 2.65669 24.0774 3.13572 23.0463C3.61474 22.0153 3.86265 20.8919 3.86205 19.7548V16.3516C3.85033 15.3133 4.04453 14.283 4.4334 13.3203C4.82227 12.3577 5.39808 11.4818 6.12749 10.7434C6.85689 10.0051 7.7254 9.41887 8.68272 9.0188C9.64003 8.61872 10.6671 8.41272 11.7045 8.41272C12.742 8.41272 13.7691 8.61872 14.7264 9.0188C15.6837 9.41887 16.5522 10.0051 17.2816 10.7434C18.011 11.4818 18.5868 12.3577 18.9757 13.3203C19.3646 14.283 19.5588 15.3133 19.547 16.3516V19.7548C19.546 20.8896 19.7927 22.011 20.27 23.0404C20.7473 24.0698 21.4435 24.9824 22.31 25.7143C22.5734 25.9366 22.7622 26.2346 22.8508 26.5679C22.9394 26.9012 22.9235 27.2536 22.8053 27.5776C22.6871 27.9015 22.4724 28.1813 22.1901 28.379C21.9078 28.5768 21.5716 28.6839 21.227 28.684ZM11.7 9.6194C9.91783 9.62125 8.20914 10.3307 6.94892 11.5921C5.6887 12.8535 4.9799 14.5638 4.97805 16.3476V19.7508C4.97929 21.049 4.69702 22.3318 4.151 23.5094C3.60498 24.687 2.8084 25.7309 1.81705 26.5681C1.729 26.642 1.66582 26.7413 1.63607 26.8524C1.60633 26.9635 1.61146 27.0811 1.65077 27.1892C1.69008 27.2973 1.76167 27.3907 1.85582 27.4567C1.94997 27.5226 2.06212 27.558 2.17705 27.558H21.227C21.3416 27.5581 21.4535 27.523 21.5475 27.4575C21.6415 27.392 21.7132 27.2992 21.7529 27.1916C21.7926 27.084 21.7983 26.9669 21.7694 26.8559C21.7405 26.7449 21.6782 26.6455 21.591 26.5711C20.599 25.7336 19.8017 24.6893 19.255 23.5113C18.7083 22.3332 18.4254 21.0497 18.426 19.7508V16.3476C18.4242 14.5631 17.7148 12.8522 16.4538 11.5907C15.1927 10.3292 13.483 9.62019 11.7 9.6194Z" fill="white" stroke="white" stroke-width="0.6"/>
<path d="M24.439 21.038C30.238 21.038 34.939 16.3326 34.939 10.5283C34.939 4.72392 30.238 0.0185547 24.439 0.0185547C18.64 0.0185547 13.939 4.72392 13.939 10.5283C13.939 16.3326 18.64 21.038 24.439 21.038Z" fill="#F72B35"/>
<path d="M24.9461 15.1496C24.3121 15.1496 23.752 15.0373 23.2657 14.8126C22.7825 14.5849 22.4055 14.2725 22.1347 13.8755C21.8639 13.4754 21.73 13.0199 21.7331 12.509C21.73 12.1089 21.8085 11.7396 21.9685 11.4011C22.1285 11.0594 22.3471 10.7748 22.624 10.547C22.9041 10.3162 23.2165 10.17 23.5612 10.1085V10.0531C23.1088 9.93611 22.7487 9.6822 22.4809 9.29134C22.2132 8.8974 22.0808 8.4496 22.0839 7.94794C22.0808 7.46783 22.2024 7.0385 22.4486 6.65995C22.6948 6.28139 23.0334 5.98286 23.4642 5.76435C23.8982 5.54584 24.3922 5.43658 24.9461 5.43658C25.494 5.43658 25.9833 5.54584 26.4142 5.76435C26.845 5.98286 27.1836 6.28139 27.4298 6.65995C27.6791 7.0385 27.8053 7.46783 27.8083 7.94794C27.8053 8.4496 27.6683 8.8974 27.3975 9.29134C27.1297 9.6822 26.7743 9.93611 26.3311 10.0531V10.1085C26.6727 10.17 26.9805 10.3162 27.2544 10.547C27.5283 10.7748 27.7468 11.0594 27.9099 11.4011C28.073 11.7396 28.1561 12.1089 28.1592 12.509C28.1561 13.0199 28.0176 13.4754 27.7437 13.8755C27.4729 14.2725 27.0959 14.5849 26.6127 14.8126C26.1326 15.0373 25.577 15.1496 24.9461 15.1496ZM24.9461 14.134C25.3739 14.134 25.7432 14.0648 26.0541 13.9263C26.3649 13.7878 26.605 13.5924 26.7743 13.34C26.9435 13.0876 27.0297 12.7922 27.0328 12.4536C27.0297 12.0966 26.9374 11.7812 26.7558 11.5072C26.5742 11.2333 26.3265 11.0179 26.0125 10.8609C25.7017 10.704 25.3462 10.6255 24.9461 10.6255C24.543 10.6255 24.1829 10.704 23.8659 10.8609C23.552 11.0179 23.3042 11.2333 23.1226 11.5072C22.9441 11.7812 22.8564 12.0966 22.8595 12.4536C22.8564 12.7922 22.938 13.0876 23.1042 13.34C23.2734 13.5924 23.515 13.7878 23.8289 13.9263C24.1429 14.0648 24.5153 14.134 24.9461 14.134ZM24.9461 9.64681C25.2847 9.64681 25.5847 9.5791 25.8463 9.44368C26.111 9.30826 26.3188 9.11899 26.4696 8.87585C26.6204 8.63272 26.6973 8.34804 26.7004 8.02181C26.6973 7.70173 26.6219 7.4232 26.4742 7.18622C26.3265 6.94617 26.1218 6.76151 25.8602 6.63225C25.5986 6.49991 25.2939 6.43374 24.9461 6.43374C24.5922 6.43374 24.2829 6.49991 24.0182 6.63225C23.7535 6.76151 23.5489 6.94617 23.4042 7.18622C23.2596 7.4232 23.1888 7.70173 23.1919 8.02181C23.1888 8.34804 23.2611 8.63272 23.4088 8.87585C23.5596 9.11899 23.7674 9.30826 24.0321 9.44368C24.2967 9.5791 24.6014 9.64681 24.9461 9.64681Z" fill="white"/>
</svg>
